<svg width="35" height="35" viewBox="0 0 35 35" fill="none" xmlns="http://www.w3.org/2000/svg">
<path d="M12.0312 29.5312C12.6353 29.5312 13.125 29.0416 13.125 28.4375C13.125 27.8334 12.6353 27.3438 12.0312 27.3438C11.4272 27.3438 10.9375 27.8334 10.9375 28.4375C10.9375 29.0416 11.4272 29.5312 12.0312 29.5312Z" stroke="#FBF9F6" stroke-linecap="round" stroke-linejoin="round"/>
<path d="M27.3438 29.5312C27.9478 29.5312 28.4375 29.0416 28.4375 28.4375C28.4375 27.8334 27.9478 27.3438 27.3438 27.3438C26.7397 27.3438 26.25 27.8334 26.25 28.4375C26.25 29.0416 26.7397 29.5312 27.3438 29.5312Z" stroke="#FBF9F6" stroke-linecap="round" stroke-linejoin="round"/>
<path d="M3.28125 5.46875H7.65625L10.9375 24.0625H28.4375" stroke="#FBF9F6" stroke-linecap="round" stroke-linejoin="round"/>
<path d="M10.9375 19.6875H27.9891C28.1155 19.6876 28.2381 19.6438 28.336 19.5637C28.4338 19.4835 28.5009 19.372 28.5257 19.2479L30.4944 9.4042C30.5103 9.32482 30.5084 9.24291 30.4888 9.16437C30.4692 9.08584 30.4324 9.01263 30.381 8.95004C30.3297 8.88746 30.2651 8.83705 30.1919 8.80245C30.1187 8.76786 30.0388 8.74994 29.9578 8.75H8.75" stroke="#FBF9F6" stroke-linecap="round" stroke-linejoin="round"/>
</svg>
