<svg width="50" height="50" viewBox="0 0 50 50" fill="none" xmlns="http://www.w3.org/2000/svg">
<path d="M19.7916 39.5833H39.5833C41.2409 39.5833 42.8306 38.9248 44.0027 37.7527C45.1748 36.5806 45.8333 34.9909 45.8333 33.3333V23.9583H22L25.5833 27.5416C25.7368 27.6847 25.8599 27.8572 25.9453 28.0489C26.0307 28.2405 26.0767 28.4474 26.0804 28.6572C26.0841 28.867 26.0455 29.0754 25.9669 29.27C25.8883 29.4645 25.7713 29.6413 25.623 29.7896C25.4746 29.938 25.2978 30.055 25.1033 30.1336C24.9087 30.2122 24.7003 30.2507 24.4905 30.247C24.2807 30.2433 24.0738 30.1974 23.8822 30.112C23.6905 30.0266 23.518 29.9035 23.375 29.75L19.7916 26.1666V39.5833ZM16.6666 20.8333V18.75C16.6666 18.3379 16.5444 17.9351 16.3155 17.5925C16.0866 17.2499 15.7612 16.9829 15.3806 16.8252C14.9999 16.6675 14.581 16.6263 14.1769 16.7067C13.7727 16.7871 13.4015 16.9855 13.1102 17.2768C12.8188 17.5682 12.6204 17.9394 12.54 18.3435C12.4596 18.7477 12.5009 19.1666 12.6585 19.5472C12.8162 19.9279 13.0833 20.2533 13.4259 20.4822C13.7685 20.7111 14.1712 20.8333 14.5833 20.8333H16.6666ZM19.7916 18.75V20.8333H21.875C22.287 20.8333 22.6898 20.7111 23.0324 20.4822C23.375 20.2533 23.642 19.9279 23.7997 19.5472C23.9574 19.1666 23.9986 18.7477 23.9183 18.3435C23.8379 17.9394 23.6395 17.5682 23.3481 17.2768C23.0567 16.9855 22.6855 16.7871 22.2814 16.7067C21.8773 16.6263 21.4584 16.6675 21.0777 16.8252C20.697 16.9829 20.3717 17.2499 20.1427 17.5925C19.9138 17.9351 19.7916 18.3379 19.7916 18.75ZM19.7916 13.975V8.33331H39.5833C41.2409 8.33331 42.8306 8.99179 44.0027 10.1639C45.1748 11.336 45.8333 12.9257 45.8333 14.5833V20.8333H26.65C27.0694 19.8737 27.1898 18.8099 26.9955 17.7808C26.8011 16.7517 26.301 15.8051 25.5604 15.0645C24.8199 14.3239 23.8733 13.8238 22.8442 13.6295C21.8151 13.4351 20.7513 13.5555 19.7916 13.975ZM16.6666 8.33331V13.975C15.707 13.5555 14.6432 13.4351 13.6141 13.6295C12.585 13.8238 11.6384 14.3239 10.8978 15.0645C10.1573 15.8051 9.65716 16.7517 9.4628 17.7808C9.26844 18.8099 9.38884 19.8737 9.80829 20.8333H4.16663V14.5833C4.16663 12.9257 4.82511 11.336 5.99721 10.1639C7.16931 8.99179 8.75902 8.33331 10.4166 8.33331H16.6666ZM16.6666 26.1666V39.5833H10.4166C8.75902 39.5833 7.16931 38.9248 5.99721 37.7527C4.82511 36.5806 4.16663 34.9909 4.16663 33.3333V23.9583H14.4583L10.875 27.5416C10.7214 27.6847 10.5983 27.8572 10.5129 28.0489C10.4275 28.2405 10.3816 28.4474 10.3779 28.6572C10.3742 28.867 10.4128 29.0754 10.4914 29.27C10.57 29.4645 10.6869 29.6413 10.8353 29.7896C10.9837 29.938 11.1604 30.055 11.355 30.1336C11.5495 30.2122 11.7579 30.2507 11.9677 30.247C12.1775 30.2433 12.3844 30.1974 12.5761 30.112C12.7677 30.0266 12.9402 29.9035 13.0833 29.75L16.6666 26.1666Z" fill="#2E1F16"/>
</svg>
