<svg width="28" height="38" viewBox="0 0 28 38" fill="none" xmlns="http://www.w3.org/2000/svg">
<path d="M0 0L3.88723 38H24.1119L28 0H0ZM4.38483 1.76885L13.8731 3.3065L13.5441 5.3385L22.3324 3.49566L22.9818 6.55752H25.6385L22.7794 36.3186H5.2198L2.44501 7.38982L2.36067 6.55752H3.60047L4.25832 2.51624L4.38483 1.76885ZM5.63306 3.50575L4.57881 9.9792L11.0814 11.0301L12.1357 4.55748L5.63306 3.50575ZM21.1516 5.28805L14.7249 6.64159L16.0743 13.0478L22.5095 11.7027L21.1516 5.28805ZM10.9212 16.9487L7.8259 22.7159L13.6285 25.8097L16.7238 20.0425L10.9212 16.9487Z" fill="#2E1F16"/>
</svg>
