<svg width="78" height="34" viewBox="0 0 78 34" fill="none" xmlns="http://www.w3.org/2000/svg">
<path d="M68.25 29.1429L60.5475 23.4114L64.35 14.5714L54.6 13.4543L53.625 3.88572L44.7525 7.67429L39 0L33.2475 7.67429L24.375 3.88572L23.2537 13.6L13.65 14.5714L17.4525 23.4114L9.75 29.1429H0V34H78V29.1429H68.25ZM19.5 29.1429C19.6733 24.0508 21.7787 19.2138 25.3915 15.6079C29.0043 12.0021 33.8554 9.89583 38.9659 9.71429C44.0827 9.87847 48.9459 11.9725 52.5722 15.5729C56.1986 19.1733 58.3173 24.0114 58.5 29.1089L19.5 29.1429Z" fill="#2E1F16"/>
</svg>
