<svg width="50" height="50" viewBox="0 0 50 50" fill="none" xmlns="http://www.w3.org/2000/svg">
<path d="M23.4375 43.75V31.25H9.375V28.125H23.4375V15.625H9.375V43.75H23.4375ZM26.5625 43.75H40.625V15.625H26.5625V28.125H40.625V31.25H26.5625V43.75ZM6.25 12.5H43.75V45.3125C43.75 45.7269 43.5854 46.1243 43.2924 46.4174C42.9993 46.7104 42.6019 46.875 42.1875 46.875H7.8125C7.3981 46.875 7.00067 46.7104 6.70765 46.4174C6.41462 46.1243 6.25 45.7269 6.25 45.3125V12.5Z" fill="#2E1F16"/>
<path d="M4.6875 12.5H45.3125C46.3542 12.5 46.875 13.0208 46.875 14.0625C46.875 15.1042 46.3542 15.625 45.3125 15.625H4.6875C3.64583 15.625 3.125 15.1042 3.125 14.0625C3.125 13.0208 3.64583 12.5 4.6875 12.5Z" fill="#2E1F16"/>
<path d="M20.3125 12.5C21.1413 12.5 21.9362 12.1708 22.5222 11.5847C23.1083 10.9987 23.4375 10.2038 23.4375 9.375C23.4375 8.5462 23.1083 7.75134 22.5222 7.16529C21.9362 6.57924 21.1413 6.25 20.3125 6.25C19.4837 6.25 18.6888 6.57924 18.1028 7.16529C17.5167 7.75134 17.1875 8.5462 17.1875 9.375C17.1875 10.2038 17.5167 10.9987 18.1028 11.5847C18.6888 12.1708 19.4837 12.5 20.3125 12.5ZM20.3125 15.625C18.6549 15.625 17.0652 14.9665 15.8931 13.7944C14.721 12.6223 14.0625 11.0326 14.0625 9.375C14.0625 7.7174 14.721 6.12769 15.8931 4.95558C17.0652 3.78348 18.6549 3.125 20.3125 3.125C21.9701 3.125 23.5598 3.78348 24.7319 4.95558C25.904 6.12769 26.5625 7.7174 26.5625 9.375C26.5625 11.0326 25.904 12.6223 24.7319 13.7944C23.5598 14.9665 21.9701 15.625 20.3125 15.625Z" fill="#2E1F16"/>
<path d="M29.6875 12.5C30.5163 12.5 31.3112 12.1708 31.8972 11.5847C32.4833 10.9987 32.8125 10.2038 32.8125 9.375C32.8125 8.5462 32.4833 7.75134 31.8972 7.16529C31.3112 6.57924 30.5163 6.25 29.6875 6.25C28.8587 6.25 28.0638 6.57924 27.4778 7.16529C26.8917 7.75134 26.5625 8.5462 26.5625 9.375C26.5625 10.2038 26.8917 10.9987 27.4778 11.5847C28.0638 12.1708 28.8587 12.5 29.6875 12.5ZM29.6875 15.625C28.0299 15.625 26.4402 14.9665 25.2681 13.7944C24.096 12.6223 23.4375 11.0326 23.4375 9.375C23.4375 7.7174 24.096 6.12769 25.2681 4.95558C26.4402 3.78348 28.0299 3.125 29.6875 3.125C31.3451 3.125 32.9348 3.78348 34.1069 4.95558C35.279 6.12769 35.9375 7.7174 35.9375 9.375C35.9375 11.0326 35.279 12.6223 34.1069 13.7944C32.9348 14.9665 31.3451 15.625 29.6875 15.625Z" fill="#2E1F16"/>
</svg>
