<svg width="42" height="35" viewBox="0 0 42 35" fill="none" xmlns="http://www.w3.org/2000/svg">
<path d="M25.6085 14.5141L31.2501 18.0433C31.9218 18.4645 32.6711 18.7467 33.4538 18.873C34.2364 18.9994 35.0365 18.9675 35.8066 18.779C36.5767 18.5906 37.3011 18.2495 37.937 17.776C38.5728 17.3025 39.1072 16.7062 39.5085 16.0224C40.048 15.1058 40.3314 14.0641 40.3335 13.0037V6.69534C40.3322 5.63443 40.0476 4.5931 39.5092 3.67894C38.9708 2.76479 38.1981 2.01096 37.271 1.49534C36.345 0.980564 35.2977 0.723881 34.2386 0.752099C33.1795 0.780318 32.1474 1.0924 31.2501 1.65576L25.6085 5.18909M15.4751 5.18909L9.83554 1.65576C9.16374 1.23447 8.41424 0.952262 7.63142 0.825855C6.84859 0.699448 6.04836 0.731409 5.27811 0.919844C4.50786 1.10828 3.78325 1.44936 3.14719 1.92288C2.51113 2.3964 1.97656 2.99274 1.57512 3.67659C1.03554 4.59325 0.752207 5.63492 0.750124 6.69742V13.0058C0.744717 13.8452 0.916753 14.6763 1.25496 15.4446C1.59316 16.213 2.0899 16.9011 2.71262 17.4641C3.33503 18.0258 4.06934 18.4493 4.86722 18.7068C5.6651 18.9642 6.50846 19.0498 7.34179 18.9578C8.23056 18.869 9.08539 18.5698 9.83554 18.0849L15.4751 14.5537" stroke="#2E1F16" stroke-width="1.5" stroke-linecap="round" stroke-linejoin="round"/>
<path d="M34.3959 18.9599L37.5417 30.7037C37.5571 30.7612 37.5594 30.8215 37.5482 30.88C37.5371 30.9385 37.5129 30.9937 37.4775 31.0416C37.442 31.0894 37.3962 31.1287 37.3435 31.1564C37.2908 31.1841 37.2325 31.1995 37.173 31.2016C37.0936 31.2026 37.0155 31.181 36.948 31.1391L30.5168 27.4099L26.8751 33.8787C26.8464 33.9311 26.8062 33.9764 26.7576 34.0112C26.7089 34.0459 26.653 34.0691 26.5941 34.0791C26.5351 34.0892 26.4747 34.0857 26.4173 34.069C26.3599 34.0524 26.307 34.0229 26.2626 33.9829C26.2034 33.9279 26.1614 33.857 26.1417 33.7787L21.3751 15.9224M26.4793 7.78702V11.9141C26.4813 12.7891 26.1959 13.6391 25.6668 14.3349L25.5293 14.5141C25.1561 14.9455 24.694 15.2912 24.1748 15.5275C23.6555 15.7637 23.0914 15.8849 22.5209 15.8828H18.5626C17.9921 15.8849 17.428 15.7637 16.9087 15.5275C16.3895 15.2912 15.9274 14.9455 15.5543 14.5141C15.4427 14.3848 15.3437 14.2453 15.2584 14.0974C14.831 13.4495 14.6035 12.6903 14.6042 11.9141V7.7891C14.6048 6.7383 15.0216 5.73051 15.7635 4.98631C16.5053 4.24211 17.5118 3.82212 18.5626 3.81827H22.5209C23.0416 3.81827 23.5572 3.921 24.0381 4.12057C24.519 4.32015 24.9559 4.61265 25.3236 4.98132C25.6913 5.34999 25.9826 5.78758 26.1809 6.26903C26.3792 6.75048 26.4806 7.26633 26.4793 7.78702Z" stroke="#2E1F16" stroke-width="1.5" stroke-linecap="round" stroke-linejoin="round"/>
<path d="M15.1793 14.0974C15.2626 14.2446 15.3613 14.3835 15.4751 14.5141L9.83556 18.0433C9.08556 18.5287 8.22931 18.8266 7.34181 18.9183L4.19598 30.7016C4.17894 30.7757 4.18361 30.8531 4.20941 30.9247C4.23522 30.9962 4.28108 31.0587 4.34151 31.1049C4.40194 31.151 4.47438 31.1788 4.55017 31.1849C4.62596 31.1909 4.7019 31.175 4.7689 31.1391L11.221 27.4099L14.9418 33.8766C14.9803 33.9468 15.0391 34.0036 15.1105 34.0397C15.1819 34.0758 15.2625 34.0894 15.3418 34.0787C15.4211 34.0677 15.4952 34.033 15.5543 33.979C15.6135 33.9251 15.6549 33.8545 15.6731 33.7766L20.4439 15.9203M30.4376 9.85159H26.5585M14.5251 9.85159H10.646" stroke="#2E1F16" stroke-width="1.5" stroke-linecap="round" stroke-linejoin="round"/>
</svg>
