<svg width="52" height="52" viewBox="0 0 52 52" fill="none" xmlns="http://www.w3.org/2000/svg">
<path d="M48.4773 25.75H50.75M25.75 3.02273V0.75M25.75 50.75V48.4773M43.9319 43.9318L41.6591 41.6591M43.9319 7.56818L41.6591 9.84091M7.56822 43.9318L9.84095 41.6591M7.56822 7.56818L9.84095 9.84091M0.750043 25.75H3.02277M25.75 39.3864C29.3666 39.3864 32.8351 37.9497 35.3924 35.3924C37.9497 32.8351 39.3864 29.3666 39.3864 25.75C39.3864 22.1334 37.9497 18.665 35.3924 16.1076C32.8351 13.5503 29.3666 12.1136 25.75 12.1136C22.1335 12.1136 18.665 13.5503 16.1077 16.1076C13.5504 18.665 12.1137 22.1334 12.1137 25.75C12.1137 29.3666 13.5504 32.8351 16.1077 35.3924C18.665 37.9497 22.1335 39.3864 25.75 39.3864Z" stroke="#2E1F16" stroke-width="1.5" stroke-linecap="round" stroke-linejoin="round"/>
</svg>
