<svg width="62" height="62" viewBox="0 0 62 62" fill="none" xmlns="http://www.w3.org/2000/svg">
<path d="M49 19H13V37C13 40.1826 14.2643 43.2348 16.5147 45.4853C18.7652 47.7357 21.8174 49 25 49H37C40.1826 49 43.2348 47.7357 45.4853 45.4853C47.7357 43.2348 49 40.1826 49 37M49 19V37M49 19H52C54.3869 19 56.6761 19.9482 58.364 21.636C60.0518 23.3239 61 25.6131 61 28C61 30.3869 60.0518 32.6761 58.364 34.364C56.6761 36.0518 54.3869 37 52 37H49M13 7C13 6.20435 13.3161 5.44129 13.8787 4.87868C14.4413 4.31607 15.2044 4 16 4C16.7956 4 17.5587 3.68393 18.1213 3.12132C18.6839 2.55871 19 1.79565 19 1M31 7C31 6.20435 31.3161 5.44129 31.8787 4.87868C32.4413 4.31607 33.2044 4 34 4C34.7956 4 35.5587 3.68393 36.1213 3.12132C36.6839 2.55871 37 1.79565 37 1M49 7C49 6.20435 49.3161 5.44129 49.8787 4.87868C50.4413 4.31607 51.2044 4 52 4C52.7956 4 53.5587 3.68393 54.1213 3.12132C54.6839 2.55871 55 1.79565 55 1M1 49C1 52.1826 2.26428 55.2348 4.51472 57.4853C6.76516 59.7357 9.8174 61 13 61H49C52.1826 61 55.2348 59.7357 57.4853 57.4853C59.7357 55.2348 61 52.1826 61 49H1Z" stroke="#2E1F16" stroke-width="2" stroke-linecap="round" stroke-linejoin="round"/>
</svg>
