<svg width="16" height="14" viewBox="0 0 16 14" fill="none" xmlns="http://www.w3.org/2000/svg">
<path d="M7.55276 13.7581C7.63726 13.9066 7.81026 14.0001 7.99976 14.0001C8.18926 14.0001 8.36226 13.9066 8.44676 13.7581L15.9468 0.633092C15.9848 0.567724 16.0031 0.492696 15.9992 0.417147C15.9954 0.341599 15.9697 0.268791 15.9253 0.207592C15.8758 0.141802 15.8115 0.0886872 15.7375 0.0526142C15.6635 0.0165412 15.582 -0.00145947 15.4998 9.248e-05H0.499761C0.326261 9.248e-05 0.165761 0.0785925 0.0747611 0.207592C0.030221 0.268741 0.00442656 0.341523 0.000520372 0.417073C-0.00338582 0.492622 0.014765 0.567676 0.0527612 0.633092L7.55276 13.7581Z" fill="#FBF9F6"/>
</svg>
