<svg width="30" height="30" viewBox="0 0 30 30" fill="none" xmlns="http://www.w3.org/2000/svg">
<path fill-rule="evenodd" clip-rule="evenodd" d="M0.486771 0.486771C0.798855 0.175076 1.2219 0 1.66298 0C2.10406 0 2.5271 0.175076 2.83918 0.486771L29.4702 27.1178C29.6338 27.2702 29.7649 27.454 29.8559 27.6581C29.9469 27.8623 29.9958 28.0827 29.9997 28.3062C30.0037 28.5297 29.9626 28.7517 29.8789 28.9589C29.7952 29.1662 29.6706 29.3544 29.5125 29.5125C29.3544 29.6706 29.1662 29.7952 28.9589 29.8789C28.7517 29.9626 28.5297 30.0037 28.3062 29.9997C28.0827 29.9958 27.8623 29.9469 27.6581 29.8559C27.454 29.7649 27.2702 29.6338 27.1178 29.4702L0.486771 2.83918C0.175076 2.5271 0 2.10406 0 1.66298C0 1.2219 0.175076 0.798855 0.486771 0.486771Z" fill="#FBF9F6"/>
<path fill-rule="evenodd" clip-rule="evenodd" d="M29.4705 0.486771C29.7822 0.798855 29.9572 1.2219 29.9572 1.66298C29.9572 2.10406 29.7822 2.5271 29.4705 2.83918L2.83941 29.4702C2.52389 29.7643 2.10657 29.9243 1.67536 29.9167C1.24416 29.9091 0.832741 29.7344 0.527787 29.4295C0.222832 29.1245 0.0481506 28.7131 0.0405425 28.2819C0.0329344 27.8507 0.192994 27.4334 0.487001 27.1178L27.1181 0.486771C27.4301 0.175076 27.8532 0 28.2943 0C28.7353 0 29.1584 0.175076 29.4705 0.486771Z" fill="#FBF9F6"/>
</svg>
